<svg xmlns="http://www.w3.org/2000/svg" xml:lang="en" height="225.20000000000005pt" width="165.18800000000002pt" viewBox="-43.58800000000001 -4.6 165.18800000000002 225.20000000000005"><circle cx="-9.919639073093561e-15" cy="54.0" r="18.0" style="stroke:black;fill:none;stroke-width:2.0;" id="na_Circle" class="na" /><path d="M 0.0,-0.0 L -6.613092715395707e-15,36.0 L -6.613092715395707e-15,36.0 M -1.3226185430791413e-14,72.0 L -1.3226185430791413e-14,72.0 L -1.9839278146187122e-14,108.0" id="na_line" class="na" style="stroke:black;fill:none;stroke-width:2.0;stroke-linecap:round;stroke-linejoin:round;" /><path d="M -6.613092715395707e-15,36.0 L -1.3226185430791413e-14,72.0" id="na_sourceLne" class="na" style="stroke:black;fill:none;stroke-width:2.0;stroke-linecap:round;stroke-linejoin:round;" /><path d="M 7.199999999999994,25.2 L 14.399999999999997,25.200000000000003" id="na_minusSign" class="na" style="stroke:black;fill:none;stroke-width:2.0;stroke-linecap:round;stroke-linejoin:round;" /><path d="M 10.799999999999995,21.599999999999998 L 10.799999999999994,28.8" id="na_plusSign1" class="na" style="stroke:black;fill:none;stroke-width:2.0;stroke-linecap:round;stroke-linejoin:round;" /><path d="M 7.199999999999984,82.8 L 14.399999999999984,82.8" id="na_plusSign2" class="na" style="stroke:black;fill:none;stroke-width:2.0;stroke-linecap:round;stroke-linejoin:round;" /><path d="M 108.0,-0.0 L 108.0,36.0 L 117.0,36.0 L 117.0,72.0 L 99.0,72.0 L 99.0,36.0 L 108.0,36.0 M 108.0,72.0 L 108.0,108.0" id="na" class="na" style="stroke:black;fill:none;stroke-width:2.0;stroke-linecap:round;stroke-linejoin:round;" /><path d="M 108.0,108.0 L 108.0,144.0 L 117.0,144.0 L 117.0,180.0 L 99.0,180.0 L 99.0,144.0 L 108.0,144.0 M 108.0,180.0 L 108.0,216.0" id="na" class="na" style="stroke:black;fill:none;stroke-width:2.0;stroke-linecap:round;stroke-linejoin:round;" /><path d="M 0.0,216.0 L 3.3065463576978533e-15,162.0 L 6.613092715395707e-15,108.0" id="na" class="na" style="stroke:black;fill:none;stroke-width:2.0;stroke-linecap:round;stroke-linejoin:round;" /><path d="M 0.0,-0.0 L 54.0,-0.0 L 108.0,-0.0" id="na" class="na" style="stroke:black;fill:none;stroke-width:2.0;stroke-linecap:round;stroke-linejoin:round;" /><path d="M 0.0,216.0 L 54.0,216.0 L 108.0,216.0" id="na" class="na" style="stroke:black;fill:none;stroke-width:2.0;stroke-linecap:round;stroke-linejoin:round;" /><text x="-21.60000000000001" y="48.4" fill="black" font-size="14.0" font-family="sans" text-anchor="end" class="na"><tspan x="-21.60000000000001" dy="14.0">V1</tspan></text><text x="95.4" y="48.4" fill="black" font-size="14.0" font-family="sans" text-anchor="end" class="na"><tspan x="95.4" dy="14.0">R1</tspan></text><text x="95.4" y="156.4" fill="black" font-size="14.0" font-family="sans" text-anchor="end" class="na"><tspan x="95.4" dy="14.0">R2</tspan></text></svg>