<svg xmlns="http://www.w3.org/2000/svg" xml:lang="en" height="1845.2000000000003pt" width="273.18800000000005pt" viewBox="-43.58800000000001 -4.6 273.18800000000005 1845.2000000000003"><circle cx="-9.919639073093561e-15" cy="54.0" r="18.0" style="stroke:black;fill:none;stroke-width:2.0;" id="na_Circle" class="na" /><path d="M 0.0,-0.0 L -6.613092715395707e-15,36.0 L -6.613092715395707e-15,36.0 M -1.3226185430791413e-14,72.0 L -1.3226185430791413e-14,72.0 L -1.9839278146187122e-14,108.0" id="na_line" class="na" style="stroke:black;fill:none;stroke-width:2.0;stroke-linecap:round;stroke-linejoin:round;" /><path d="M -6.613092715395707e-15,36.0 L -1.3226185430791413e-14,72.0" id="na_sourceLne" class="na" style="stroke:black;fill:none;stroke-width:2.0;stroke-linecap:round;stroke-linejoin:round;" /><path d="M 7.199999999999994,25.2 L 14.399999999999997,25.200000000000003" id="na_minusSign" class="na" style="stroke:black;fill:none;stroke-width:2.0;stroke-linecap:round;stroke-linejoin:round;" /><path d="M 10.799999999999995,21.599999999999998 L 10.799999999999994,28.8" id="na_plusSign1" class="na" style="stroke:black;fill:none;stroke-width:2.0;stroke-linecap:round;stroke-linejoin:round;" /><path d="M 7.199999999999984,82.8 L 14.399999999999984,82.8" id="na_plusSign2" class="na" style="stroke:black;fill:none;stroke-width:2.0;stroke-linecap:round;stroke-linejoin:round;" /><path d="M 108.0,-0.0 L 108.0,36.0 L 117.0,36.0 L 117.0,72.0 L 99.0,72.0 L 99.0,36.0 L 108.0,36.0 M 108.0,72.0 L 108.0,108.0" id="na" class="na" style="stroke:black;fill:none;stroke-width:2.0;stroke-linecap:round;stroke-linejoin:round;" /><path d="M 216.0,108.0 L 216.0,144.0 L 225.0,144.0 L 225.0,180.0 L 207.0,180.0 L 207.0,144.0 L 216.0,144.0 M 216.0,180.0 L 216.0,216.0" id="na" class="na" style="stroke:black;fill:none;stroke-width:2.0;stroke-linecap:round;stroke-linejoin:round;" /><path d="M 108.0,108.0 L 108.0,144.0 L 117.0,144.0 L 117.0,180.0 L 99.0,180.0 L 99.0,144.0 L 108.0,144.0 M 108.0,180.0 L 108.0,216.0" id="na" class="na" style="stroke:black;fill:none;stroke-width:2.0;stroke-linecap:round;stroke-linejoin:round;" /><path d="M 216.0,216.0 L 216.0,252.0 L 225.0,252.0 L 225.0,288.0 L 207.0,288.0 L 207.0,252.0 L 216.0,252.0 M 216.0,288.0 L 216.0,324.0" id="na" class="na" style="stroke:black;fill:none;stroke-width:2.0;stroke-linecap:round;stroke-linejoin:round;" /><path d="M 216.0,324.0 L 216.0,360.0 L 225.0,360.0 L 225.0,396.0 L 207.0,396.0 L 207.0,360.0 L 216.0,360.0 M 216.0,396.0 L 216.0,432.0" id="na" class="na" style="stroke:black;fill:none;stroke-width:2.0;stroke-linecap:round;stroke-linejoin:round;" /><path d="M 108.0,432.0 L 108.0,468.0 L 117.0,468.0 L 117.0,504.0 L 99.0,504.0 L 99.0,468.0 L 108.0,468.0 M 108.0,504.0 L 108.0,540.0" id="na" class="na" style="stroke:black;fill:none;stroke-width:2.0;stroke-linecap:round;stroke-linejoin:round;" /><path d="M 108.0,540.0 L 108.0,576.0 L 117.0,576.0 L 117.0,612.0 L 99.0,612.0 L 99.0,576.0 L 108.0,576.0 M 108.0,612.0 L 108.0,648.0" id="na" class="na" style="stroke:black;fill:none;stroke-width:2.0;stroke-linecap:round;stroke-linejoin:round;" /><path d="M 216.0,648.0 L 216.0,684.0 L 225.0,684.0 L 225.0,720.0 L 207.0,720.0 L 207.0,684.0 L 216.0,684.0 M 216.0,720.0 L 216.0,756.0" id="na" class="na" style="stroke:black;fill:none;stroke-width:2.0;stroke-linecap:round;stroke-linejoin:round;" /><path d="M 108.0,648.0 L 108.0,684.0 L 117.0,684.0 L 117.0,720.0 L 99.0,720.0 L 99.0,684.0 L 108.0,684.0 M 108.0,720.0 L 108.0,756.0" id="na" class="na" style="stroke:black;fill:none;stroke-width:2.0;stroke-linecap:round;stroke-linejoin:round;" /><path d="M 216.0,756.0 L 216.0,792.0 L 225.0,792.0 L 225.0,828.0 L 207.0,828.0 L 207.0,792.0 L 216.0,792.0 M 216.0,828.0 L 216.0,864.0" id="na" class="na" style="stroke:black;fill:none;stroke-width:2.0;stroke-linecap:round;stroke-linejoin:round;" /><path d="M 216.0,864.0 L 216.0,900.0 L 225.0,900.0 L 225.0,936.0 L 207.0,936.0 L 207.0,900.0 L 216.0,900.0 M 216.0,936.0 L 216.0,972.0" id="na" class="na" style="stroke:black;fill:none;stroke-width:2.0;stroke-linecap:round;stroke-linejoin:round;" /><path d="M 216.0,972.0 L 216.0,1008.0 L 225.0,1008.0 L 225.0,1044.0 L 207.0,1044.0 L 207.0,1008.0 L 216.0,1008.0 M 216.0,1044.0 L 216.0,1080.0" id="na" class="na" style="stroke:black;fill:none;stroke-width:2.0;stroke-linecap:round;stroke-linejoin:round;" /><path d="M 216.0,1080.0 L 216.0,1116.0 L 225.0,1116.0 L 225.0,1152.0 L 207.0,1152.0 L 207.0,1116.0 L 216.0,1116.0 M 216.0,1152.0 L 216.0,1188.0" id="na" class="na" style="stroke:black;fill:none;stroke-width:2.0;stroke-linecap:round;stroke-linejoin:round;" /><path d="M 216.0,1188.0 L 216.0,1224.0 L 225.0,1224.0 L 225.0,1260.0 L 207.0,1260.0 L 207.0,1224.0 L 216.0,1224.0 M 216.0,1260.0 L 216.0,1296.0" id="na" class="na" style="stroke:black;fill:none;stroke-width:2.0;stroke-linecap:round;stroke-linejoin:round;" /><path d="M 216.0,1296.0 L 216.0,1332.0 L 225.0,1332.0 L 225.0,1368.0 L 207.0,1368.0 L 207.0,1332.0 L 216.0,1332.0 M 216.0,1368.0 L 216.0,1404.0" id="na" class="na" style="stroke:black;fill:none;stroke-width:2.0;stroke-linecap:round;stroke-linejoin:round;" /><path d="M 216.0,1404.0 L 216.0,1440.0 L 225.0,1440.0 L 225.0,1476.0 L 207.0,1476.0 L 207.0,1440.0 L 216.0,1440.0 M 216.0,1476.0 L 216.0,1512.0" id="na" class="na" style="stroke:black;fill:none;stroke-width:2.0;stroke-linecap:round;stroke-linejoin:round;" /><path d="M 216.0,1512.0 L 216.0,1548.0 L 225.0,1548.0 L 225.0,1584.0 L 207.0,1584.0 L 207.0,1548.0 L 216.0,1548.0 M 216.0,1584.0 L 216.0,1620.0" id="na" class="na" style="stroke:black;fill:none;stroke-width:2.0;stroke-linecap:round;stroke-linejoin:round;" /><path d="M 216.0,1620.0 L 216.0,1656.0 L 225.0,1656.0 L 225.0,1692.0 L 207.0,1692.0 L 207.0,1656.0 L 216.0,1656.0 M 216.0,1692.0 L 216.0,1728.0" id="na" class="na" style="stroke:black;fill:none;stroke-width:2.0;stroke-linecap:round;stroke-linejoin:round;" /><path d="M 216.0,1728.0 L 216.0,1764.0 L 225.0,1764.0 L 225.0,1800.0 L 207.0,1800.0 L 207.0,1764.0 L 216.0,1764.0 M 216.0,1800.0 L 216.0,1836.0" id="na" class="na" style="stroke:black;fill:none;stroke-width:2.0;stroke-linecap:round;stroke-linejoin:round;" /><path d="M 0.0,1836.0 L 5.2904741723165653e-14,972.0 L 1.0580948344633131e-13,108.0" id="na" class="na" style="stroke:black;fill:none;stroke-width:2.0;stroke-linecap:round;stroke-linejoin:round;" /><path d="M 108.0,1836.0 L 108.00000000000003,1296.0 L 108.00000000000006,756.0" id="na" class="na" style="stroke:black;fill:none;stroke-width:2.0;stroke-linecap:round;stroke-linejoin:round;" /><path d="M 108.0,432.0 L 108.0,324.0 L 108.00000000000001,216.0" id="na" class="na" style="stroke:black;fill:none;stroke-width:2.0;stroke-linecap:round;stroke-linejoin:round;" /><path d="M 0.0,-0.0 L 54.0,-0.0 L 108.0,-0.0" id="na" class="na" style="stroke:black;fill:none;stroke-width:2.0;stroke-linecap:round;stroke-linejoin:round;" /><path d="M 0.0,1836.0 L 54.0,1836.0 L 108.0,1836.0" id="na" class="na" style="stroke:black;fill:none;stroke-width:2.0;stroke-linecap:round;stroke-linejoin:round;" /><path d="M 108.0,1836.0 L 162.0,1836.0 L 216.0,1836.0" id="na" class="na" style="stroke:black;fill:none;stroke-width:2.0;stroke-linecap:round;stroke-linejoin:round;" /><path d="M 108.0,108.0 L 162.0,108.0 L 216.0,108.0" id="na" class="na" style="stroke:black;fill:none;stroke-width:2.0;stroke-linecap:round;stroke-linejoin:round;" /><path d="M 108.0,432.0 L 162.0,432.0 L 216.0,432.0" id="na" class="na" style="stroke:black;fill:none;stroke-width:2.0;stroke-linecap:round;stroke-linejoin:round;" /><path d="M 108.0,648.0 L 162.0,648.0 L 216.0,648.0" id="na" class="na" style="stroke:black;fill:none;stroke-width:2.0;stroke-linecap:round;stroke-linejoin:round;" /><text x="-21.60000000000001" y="48.4" fill="black" font-size="14.0" font-family="sans" text-anchor="end" class="na"><tspan x="-21.60000000000001" dy="14.0">V1</tspan></text><text x="95.4" y="48.4" fill="black" font-size="14.0" font-family="sans" text-anchor="end" class="na"><tspan x="95.4" dy="14.0">R1</tspan></text><text x="203.4" y="156.4" fill="black" font-size="14.0" font-family="sans" text-anchor="end" class="na"><tspan x="203.4" dy="14.0">R2</tspan></text><text x="95.4" y="156.4" fill="black" font-size="14.0" font-family="sans" text-anchor="end" class="na"><tspan x="95.4" dy="14.0">R18</tspan></text><text x="203.4" y="264.40000000000003" fill="black" font-size="14.0" font-family="sans" text-anchor="end" class="na"><tspan x="203.4" dy="14.0">R3</tspan></text><text x="203.4" y="372.40000000000003" fill="black" font-size="14.0" font-family="sans" text-anchor="end" class="na"><tspan x="203.4" dy="14.0">R4</tspan></text><text x="95.4" y="480.40000000000003" fill="black" font-size="14.0" font-family="sans" text-anchor="end" class="na"><tspan x="95.4" dy="14.0">R5</tspan></text><text x="95.4" y="588.4" fill="black" font-size="14.0" font-family="sans" text-anchor="end" class="na"><tspan x="95.4" dy="14.0">R6</tspan></text><text x="203.4" y="696.4" fill="black" font-size="14.0" font-family="sans" text-anchor="end" class="na"><tspan x="203.4" dy="14.0">R7</tspan></text><text x="95.4" y="696.4" fill="black" font-size="14.0" font-family="sans" text-anchor="end" class="na"><tspan x="95.4" dy="14.0">R19</tspan></text><text x="203.4" y="804.4" fill="black" font-size="14.0" font-family="sans" text-anchor="end" class="na"><tspan x="203.4" dy="14.0">R8</tspan></text><text x="203.4" y="912.4" fill="black" font-size="14.0" font-family="sans" text-anchor="end" class="na"><tspan x="203.4" dy="14.0">R9</tspan></text><text x="203.4" y="1020.3999999999999" fill="black" font-size="14.0" font-family="sans" text-anchor="end" class="na"><tspan x="203.4" dy="14.0">R10</tspan></text><text x="203.4" y="1128.3999999999999" fill="black" font-size="14.0" font-family="sans" text-anchor="end" class="na"><tspan x="203.4" dy="14.0">R11</tspan></text><text x="203.4" y="1236.3999999999999" fill="black" font-size="14.0" font-family="sans" text-anchor="end" class="na"><tspan x="203.4" dy="14.0">R12</tspan></text><text x="203.4" y="1344.3999999999999" fill="black" font-size="14.0" font-family="sans" text-anchor="end" class="na"><tspan x="203.4" dy="14.0">R13</tspan></text><text x="203.4" y="1452.3999999999999" fill="black" font-size="14.0" font-family="sans" text-anchor="end" class="na"><tspan x="203.4" dy="14.0">R14</tspan></text><text x="203.4" y="1560.3999999999999" fill="black" font-size="14.0" font-family="sans" text-anchor="end" class="na"><tspan x="203.4" dy="14.0">R15</tspan></text><text x="203.4" y="1668.3999999999999" fill="black" font-size="14.0" font-family="sans" text-anchor="end" class="na"><tspan x="203.4" dy="14.0">R16</tspan></text><text x="203.4" y="1776.3999999999999" fill="black" font-size="14.0" font-family="sans" text-anchor="end" class="na"><tspan x="203.4" dy="14.0">R17</tspan></text></svg>